<mxfile host="app.diagrams.net" agent="Mozilla/5.0 (Windows NT 10.0; Win64; x64) AppleWebKit/537.36 (KHTML, like Gecko) Chrome/128.0.0.0 Safari/537.36 OPR/114.0.0.0" version="24.8.4">
  <diagram name="Σελίδα-1" id="i7qNrUpRXzwxiMrxnKOg">
    <mxGraphModel dx="1268" dy="558" grid="1" gridSize="10" guides="1" tooltips="1" connect="1" arrows="1" fold="1" page="1" pageScale="1" pageWidth="827" pageHeight="1169" math="0" shadow="0">
      <root>
        <mxCell id="0" />
        <mxCell id="1" parent="0" />
        <mxCell id="NFW7nQOXXXlPpSmHHsXy-12" style="edgeStyle=orthogonalEdgeStyle;rounded=0;orthogonalLoop=1;jettySize=auto;html=1;exitX=0.5;exitY=0;exitDx=0;exitDy=0;entryX=0.5;entryY=1;entryDx=0;entryDy=0;" edge="1" parent="1" source="NFW7nQOXXXlPpSmHHsXy-1" target="NFW7nQOXXXlPpSmHHsXy-2">
          <mxGeometry relative="1" as="geometry" />
        </mxCell>
        <mxCell id="NFW7nQOXXXlPpSmHHsXy-1" value="Sensors" style="rounded=0;whiteSpace=wrap;html=1;" vertex="1" parent="1">
          <mxGeometry x="250" y="440" width="120" height="60" as="geometry" />
        </mxCell>
        <mxCell id="NFW7nQOXXXlPpSmHHsXy-13" style="edgeStyle=orthogonalEdgeStyle;rounded=0;orthogonalLoop=1;jettySize=auto;html=1;exitX=0.75;exitY=0;exitDx=0;exitDy=0;entryX=0.25;entryY=1;entryDx=0;entryDy=0;" edge="1" parent="1" source="NFW7nQOXXXlPpSmHHsXy-2" target="NFW7nQOXXXlPpSmHHsXy-5">
          <mxGeometry relative="1" as="geometry" />
        </mxCell>
        <mxCell id="NFW7nQOXXXlPpSmHHsXy-14" style="edgeStyle=orthogonalEdgeStyle;rounded=0;orthogonalLoop=1;jettySize=auto;html=1;exitX=0.25;exitY=0;exitDx=0;exitDy=0;" edge="1" parent="1" source="NFW7nQOXXXlPpSmHHsXy-2" target="NFW7nQOXXXlPpSmHHsXy-3">
          <mxGeometry relative="1" as="geometry" />
        </mxCell>
        <mxCell id="NFW7nQOXXXlPpSmHHsXy-2" value="MQTT" style="rounded=0;whiteSpace=wrap;html=1;" vertex="1" parent="1">
          <mxGeometry x="250" y="290" width="120" height="60" as="geometry" />
        </mxCell>
        <mxCell id="NFW7nQOXXXlPpSmHHsXy-15" style="edgeStyle=orthogonalEdgeStyle;rounded=0;orthogonalLoop=1;jettySize=auto;html=1;exitX=0.5;exitY=0;exitDx=0;exitDy=0;" edge="1" parent="1" source="NFW7nQOXXXlPpSmHHsXy-3" target="NFW7nQOXXXlPpSmHHsXy-4">
          <mxGeometry relative="1" as="geometry" />
        </mxCell>
        <mxCell id="NFW7nQOXXXlPpSmHHsXy-3" value="Influx" style="rounded=0;whiteSpace=wrap;html=1;" vertex="1" parent="1">
          <mxGeometry x="70" y="150" width="120" height="60" as="geometry" />
        </mxCell>
        <mxCell id="NFW7nQOXXXlPpSmHHsXy-4" value="Grafana" style="rounded=0;whiteSpace=wrap;html=1;" vertex="1" parent="1">
          <mxGeometry x="70" y="30" width="120" height="60" as="geometry" />
        </mxCell>
        <mxCell id="NFW7nQOXXXlPpSmHHsXy-10" style="edgeStyle=orthogonalEdgeStyle;rounded=0;orthogonalLoop=1;jettySize=auto;html=1;exitX=1;exitY=0.5;exitDx=0;exitDy=0;entryX=0;entryY=0.5;entryDx=0;entryDy=0;" edge="1" parent="1" source="NFW7nQOXXXlPpSmHHsXy-5" target="NFW7nQOXXXlPpSmHHsXy-7">
          <mxGeometry relative="1" as="geometry" />
        </mxCell>
        <mxCell id="NFW7nQOXXXlPpSmHHsXy-5" value="Context Broker" style="rounded=0;whiteSpace=wrap;html=1;" vertex="1" parent="1">
          <mxGeometry x="460" y="160" width="120" height="60" as="geometry" />
        </mxCell>
        <mxCell id="NFW7nQOXXXlPpSmHHsXy-9" style="edgeStyle=orthogonalEdgeStyle;rounded=0;orthogonalLoop=1;jettySize=auto;html=1;exitX=0;exitY=0.5;exitDx=0;exitDy=0;" edge="1" parent="1" source="NFW7nQOXXXlPpSmHHsXy-6" target="NFW7nQOXXXlPpSmHHsXy-5">
          <mxGeometry relative="1" as="geometry" />
        </mxCell>
        <mxCell id="NFW7nQOXXXlPpSmHHsXy-6" value="Server" style="rounded=0;whiteSpace=wrap;html=1;" vertex="1" parent="1">
          <mxGeometry x="550" y="10" width="120" height="60" as="geometry" />
        </mxCell>
        <mxCell id="NFW7nQOXXXlPpSmHHsXy-7" value="MySQL" style="rounded=0;whiteSpace=wrap;html=1;" vertex="1" parent="1">
          <mxGeometry x="690" y="160" width="120" height="60" as="geometry" />
        </mxCell>
        <mxCell id="NFW7nQOXXXlPpSmHHsXy-11" style="edgeStyle=orthogonalEdgeStyle;rounded=0;orthogonalLoop=1;jettySize=auto;html=1;exitX=0.25;exitY=0;exitDx=0;exitDy=0;entryX=0.75;entryY=1;entryDx=0;entryDy=0;" edge="1" parent="1" source="NFW7nQOXXXlPpSmHHsXy-8" target="NFW7nQOXXXlPpSmHHsXy-5">
          <mxGeometry relative="1" as="geometry" />
        </mxCell>
        <mxCell id="NFW7nQOXXXlPpSmHHsXy-8" value="User" style="rounded=0;whiteSpace=wrap;html=1;" vertex="1" parent="1">
          <mxGeometry x="600" y="320" width="120" height="60" as="geometry" />
        </mxCell>
        <mxCell id="NFW7nQOXXXlPpSmHHsXy-16" value="Κάθε 20 δευτερόλεπτα ελέγχει τις θέσεις parking" style="text;html=1;align=center;verticalAlign=middle;whiteSpace=wrap;rounded=0;" vertex="1" parent="1">
          <mxGeometry x="630" y="280" width="150" height="30" as="geometry" />
        </mxCell>
        <mxCell id="NFW7nQOXXXlPpSmHHsXy-17" value="Ελέγχει παράνομο παρκάρισμα και στέλνει emai" style="text;html=1;align=center;verticalAlign=middle;whiteSpace=wrap;rounded=0;" vertex="1" parent="1">
          <mxGeometry x="540" y="80" width="180" height="30" as="geometry" />
        </mxCell>
        <mxCell id="NFW7nQOXXXlPpSmHHsXy-18" value="Μετρήσεις μπαταρίας, θερμοκρασίας κτλ +Αlerts" style="text;html=1;align=center;verticalAlign=middle;whiteSpace=wrap;rounded=0;" vertex="1" parent="1">
          <mxGeometry x="150" y="220" width="140" height="30" as="geometry" />
        </mxCell>
      </root>
    </mxGraphModel>
  </diagram>
</mxfile>
